<mxfile host="app.diagrams.net" modified="2023-10-22T17:32:27.461Z" agent="Mozilla/5.0 (Windows NT 10.0; Win64; x64) AppleWebKit/537.36 (KHTML, like Gecko) Chrome/118.0.0.0 Safari/537.36 Edg/118.0.2088.61" etag="HOE6VmPnP77JpE1Y3Txd" version="22.0.6" type="device">
  <diagram id="C5RBs43oDa-KdzZeNtuy" name="Page-1">
    <mxGraphModel dx="1500" dy="921" grid="0" gridSize="10" guides="1" tooltips="1" connect="1" arrows="1" fold="1" page="0" pageScale="1" pageWidth="827" pageHeight="1169" math="0" shadow="0">
      <root>
        <mxCell id="WIyWlLk6GJQsqaUBKTNV-0" />
        <mxCell id="WIyWlLk6GJQsqaUBKTNV-1" parent="WIyWlLk6GJQsqaUBKTNV-0" />
        <mxCell id="FNkPyqkchI54DgubYqVO-3" style="edgeStyle=orthogonalEdgeStyle;rounded=0;orthogonalLoop=1;jettySize=auto;html=1;entryX=0.5;entryY=0;entryDx=0;entryDy=0;" edge="1" parent="WIyWlLk6GJQsqaUBKTNV-1" source="FNkPyqkchI54DgubYqVO-0" target="FNkPyqkchI54DgubYqVO-1">
          <mxGeometry relative="1" as="geometry" />
        </mxCell>
        <mxCell id="FNkPyqkchI54DgubYqVO-0" value="Начало" style="strokeWidth=2;html=1;shape=mxgraph.flowchart.terminator;whiteSpace=wrap;strokeColor=#000000;" vertex="1" parent="WIyWlLk6GJQsqaUBKTNV-1">
          <mxGeometry x="70" y="20" width="140" height="40" as="geometry" />
        </mxCell>
        <mxCell id="FNkPyqkchI54DgubYqVO-5" value="" style="edgeStyle=orthogonalEdgeStyle;rounded=0;orthogonalLoop=1;jettySize=auto;html=1;" edge="1" parent="WIyWlLk6GJQsqaUBKTNV-1" source="FNkPyqkchI54DgubYqVO-1" target="FNkPyqkchI54DgubYqVO-4">
          <mxGeometry relative="1" as="geometry" />
        </mxCell>
        <mxCell id="FNkPyqkchI54DgubYqVO-1" value="&amp;nbsp; &amp;nbsp; Вывод &quot; Введите номер программы ( от 1 до 4)&quot;" style="shape=parallelogram;perimeter=parallelogramPerimeter;whiteSpace=wrap;html=1;fixedSize=1;" vertex="1" parent="WIyWlLk6GJQsqaUBKTNV-1">
          <mxGeometry x="50" y="90" width="180" height="40" as="geometry" />
        </mxCell>
        <mxCell id="FNkPyqkchI54DgubYqVO-8" value="" style="edgeStyle=orthogonalEdgeStyle;rounded=0;orthogonalLoop=1;jettySize=auto;html=1;" edge="1" parent="WIyWlLk6GJQsqaUBKTNV-1" source="FNkPyqkchI54DgubYqVO-4" target="FNkPyqkchI54DgubYqVO-7">
          <mxGeometry relative="1" as="geometry" />
        </mxCell>
        <mxCell id="FNkPyqkchI54DgubYqVO-4" value="Ввод i" style="shape=parallelogram;perimeter=parallelogramPerimeter;whiteSpace=wrap;html=1;fixedSize=1;" vertex="1" parent="WIyWlLk6GJQsqaUBKTNV-1">
          <mxGeometry x="50" y="160" width="180" height="40" as="geometry" />
        </mxCell>
        <mxCell id="FNkPyqkchI54DgubYqVO-10" value="" style="edgeStyle=orthogonalEdgeStyle;rounded=0;orthogonalLoop=1;jettySize=auto;html=1;" edge="1" parent="WIyWlLk6GJQsqaUBKTNV-1" source="FNkPyqkchI54DgubYqVO-7" target="FNkPyqkchI54DgubYqVO-9">
          <mxGeometry relative="1" as="geometry" />
        </mxCell>
        <mxCell id="FNkPyqkchI54DgubYqVO-17" value="" style="edgeStyle=orthogonalEdgeStyle;rounded=0;orthogonalLoop=1;jettySize=auto;html=1;" edge="1" parent="WIyWlLk6GJQsqaUBKTNV-1" source="FNkPyqkchI54DgubYqVO-7" target="FNkPyqkchI54DgubYqVO-9">
          <mxGeometry relative="1" as="geometry" />
        </mxCell>
        <mxCell id="FNkPyqkchI54DgubYqVO-19" value="Нет" style="edgeLabel;html=1;align=center;verticalAlign=middle;resizable=0;points=[];" vertex="1" connectable="0" parent="FNkPyqkchI54DgubYqVO-17">
          <mxGeometry x="-0.712" y="-1" relative="1" as="geometry">
            <mxPoint x="-19" y="3" as="offset" />
          </mxGeometry>
        </mxCell>
        <mxCell id="FNkPyqkchI54DgubYqVO-34" value="" style="edgeStyle=orthogonalEdgeStyle;rounded=0;orthogonalLoop=1;jettySize=auto;html=1;" edge="1" parent="WIyWlLk6GJQsqaUBKTNV-1" source="FNkPyqkchI54DgubYqVO-7" target="FNkPyqkchI54DgubYqVO-33">
          <mxGeometry relative="1" as="geometry" />
        </mxCell>
        <mxCell id="FNkPyqkchI54DgubYqVO-61" value="Да" style="edgeLabel;html=1;align=center;verticalAlign=middle;resizable=0;points=[];" vertex="1" connectable="0" parent="FNkPyqkchI54DgubYqVO-34">
          <mxGeometry x="-0.7636" y="2" relative="1" as="geometry">
            <mxPoint x="4" y="-8" as="offset" />
          </mxGeometry>
        </mxCell>
        <mxCell id="FNkPyqkchI54DgubYqVO-7" value="i = 1 ?" style="rhombus;whiteSpace=wrap;html=1;" vertex="1" parent="WIyWlLk6GJQsqaUBKTNV-1">
          <mxGeometry x="60" y="230" width="160" height="80" as="geometry" />
        </mxCell>
        <mxCell id="FNkPyqkchI54DgubYqVO-12" value="" style="edgeStyle=orthogonalEdgeStyle;rounded=0;orthogonalLoop=1;jettySize=auto;html=1;" edge="1" parent="WIyWlLk6GJQsqaUBKTNV-1" source="FNkPyqkchI54DgubYqVO-9" target="FNkPyqkchI54DgubYqVO-11">
          <mxGeometry relative="1" as="geometry" />
        </mxCell>
        <mxCell id="FNkPyqkchI54DgubYqVO-20" value="Нет" style="edgeLabel;html=1;align=center;verticalAlign=middle;resizable=0;points=[];" vertex="1" connectable="0" parent="FNkPyqkchI54DgubYqVO-12">
          <mxGeometry x="-0.632" y="-2" relative="1" as="geometry">
            <mxPoint x="-18" as="offset" />
          </mxGeometry>
        </mxCell>
        <mxCell id="FNkPyqkchI54DgubYqVO-45" value="" style="edgeStyle=orthogonalEdgeStyle;rounded=0;orthogonalLoop=1;jettySize=auto;html=1;" edge="1" parent="WIyWlLk6GJQsqaUBKTNV-1" source="FNkPyqkchI54DgubYqVO-9" target="FNkPyqkchI54DgubYqVO-44">
          <mxGeometry relative="1" as="geometry" />
        </mxCell>
        <mxCell id="FNkPyqkchI54DgubYqVO-62" value="Да" style="edgeLabel;html=1;align=center;verticalAlign=middle;resizable=0;points=[];" vertex="1" connectable="0" parent="FNkPyqkchI54DgubYqVO-45">
          <mxGeometry x="-0.72" y="-1" relative="1" as="geometry">
            <mxPoint x="3" y="-11" as="offset" />
          </mxGeometry>
        </mxCell>
        <mxCell id="FNkPyqkchI54DgubYqVO-9" value="i = 2 ?" style="rhombus;whiteSpace=wrap;html=1;" vertex="1" parent="WIyWlLk6GJQsqaUBKTNV-1">
          <mxGeometry x="60" y="340" width="160" height="80" as="geometry" />
        </mxCell>
        <mxCell id="FNkPyqkchI54DgubYqVO-14" value="" style="edgeStyle=orthogonalEdgeStyle;rounded=0;orthogonalLoop=1;jettySize=auto;html=1;" edge="1" parent="WIyWlLk6GJQsqaUBKTNV-1" source="FNkPyqkchI54DgubYqVO-11" target="FNkPyqkchI54DgubYqVO-13">
          <mxGeometry relative="1" as="geometry" />
        </mxCell>
        <mxCell id="FNkPyqkchI54DgubYqVO-21" value="Нет" style="edgeLabel;html=1;align=center;verticalAlign=middle;resizable=0;points=[];" vertex="1" connectable="0" parent="FNkPyqkchI54DgubYqVO-14">
          <mxGeometry x="-0.7792" y="1" relative="1" as="geometry">
            <mxPoint x="-21" as="offset" />
          </mxGeometry>
        </mxCell>
        <mxCell id="FNkPyqkchI54DgubYqVO-47" value="" style="edgeStyle=orthogonalEdgeStyle;rounded=0;orthogonalLoop=1;jettySize=auto;html=1;" edge="1" parent="WIyWlLk6GJQsqaUBKTNV-1" source="FNkPyqkchI54DgubYqVO-11" target="FNkPyqkchI54DgubYqVO-46">
          <mxGeometry relative="1" as="geometry" />
        </mxCell>
        <mxCell id="FNkPyqkchI54DgubYqVO-63" value="Да" style="edgeLabel;html=1;align=center;verticalAlign=middle;resizable=0;points=[];" vertex="1" connectable="0" parent="FNkPyqkchI54DgubYqVO-47">
          <mxGeometry x="-0.7621" y="4" relative="1" as="geometry">
            <mxPoint x="4" y="-6" as="offset" />
          </mxGeometry>
        </mxCell>
        <mxCell id="FNkPyqkchI54DgubYqVO-11" value="i = 3 ?" style="rhombus;whiteSpace=wrap;html=1;" vertex="1" parent="WIyWlLk6GJQsqaUBKTNV-1">
          <mxGeometry x="60" y="450" width="160" height="80" as="geometry" />
        </mxCell>
        <mxCell id="FNkPyqkchI54DgubYqVO-16" style="edgeStyle=orthogonalEdgeStyle;rounded=0;orthogonalLoop=1;jettySize=auto;html=1;entryX=0.5;entryY=0;entryDx=0;entryDy=0;" edge="1" parent="WIyWlLk6GJQsqaUBKTNV-1" source="FNkPyqkchI54DgubYqVO-13" target="FNkPyqkchI54DgubYqVO-15">
          <mxGeometry relative="1" as="geometry" />
        </mxCell>
        <mxCell id="FNkPyqkchI54DgubYqVO-22" value="Нет" style="edgeLabel;html=1;align=center;verticalAlign=middle;resizable=0;points=[];" vertex="1" connectable="0" parent="FNkPyqkchI54DgubYqVO-16">
          <mxGeometry x="-0.736" y="-1" relative="1" as="geometry">
            <mxPoint x="-19" as="offset" />
          </mxGeometry>
        </mxCell>
        <mxCell id="FNkPyqkchI54DgubYqVO-66" style="edgeStyle=orthogonalEdgeStyle;rounded=0;orthogonalLoop=1;jettySize=auto;html=1;exitX=1;exitY=0.5;exitDx=0;exitDy=0;" edge="1" parent="WIyWlLk6GJQsqaUBKTNV-1" source="FNkPyqkchI54DgubYqVO-13">
          <mxGeometry relative="1" as="geometry">
            <mxPoint x="140" y="720" as="targetPoint" />
            <Array as="points">
              <mxPoint x="250" y="600" />
              <mxPoint x="250" y="720" />
              <mxPoint x="140" y="720" />
            </Array>
          </mxGeometry>
        </mxCell>
        <mxCell id="FNkPyqkchI54DgubYqVO-13" value="i = 4?" style="rhombus;whiteSpace=wrap;html=1;" vertex="1" parent="WIyWlLk6GJQsqaUBKTNV-1">
          <mxGeometry x="60" y="560" width="160" height="80" as="geometry" />
        </mxCell>
        <mxCell id="FNkPyqkchI54DgubYqVO-15" value="Вывод &quot; Нет такой программы&quot;" style="shape=parallelogram;perimeter=parallelogramPerimeter;whiteSpace=wrap;html=1;fixedSize=1;" vertex="1" parent="WIyWlLk6GJQsqaUBKTNV-1">
          <mxGeometry x="40" y="670" width="200" height="40" as="geometry" />
        </mxCell>
        <mxCell id="FNkPyqkchI54DgubYqVO-26" value="" style="edgeStyle=orthogonalEdgeStyle;rounded=0;orthogonalLoop=1;jettySize=auto;html=1;" edge="1" parent="WIyWlLk6GJQsqaUBKTNV-1" source="FNkPyqkchI54DgubYqVO-23" target="FNkPyqkchI54DgubYqVO-25">
          <mxGeometry relative="1" as="geometry" />
        </mxCell>
        <mxCell id="FNkPyqkchI54DgubYqVO-23" value="Ввод прописная буква" style="shape=parallelogram;perimeter=parallelogramPerimeter;whiteSpace=wrap;html=1;fixedSize=1;" vertex="1" parent="WIyWlLk6GJQsqaUBKTNV-1">
          <mxGeometry x="370" y="95" width="120" height="40" as="geometry" />
        </mxCell>
        <mxCell id="FNkPyqkchI54DgubYqVO-28" value="" style="edgeStyle=orthogonalEdgeStyle;rounded=0;orthogonalLoop=1;jettySize=auto;html=1;entryX=0.5;entryY=0;entryDx=0;entryDy=0;" edge="1" parent="WIyWlLk6GJQsqaUBKTNV-1" source="FNkPyqkchI54DgubYqVO-25" target="FNkPyqkchI54DgubYqVO-29">
          <mxGeometry relative="1" as="geometry">
            <mxPoint x="511" y="425" as="targetPoint" />
          </mxGeometry>
        </mxCell>
        <mxCell id="FNkPyqkchI54DgubYqVO-59" value="Да" style="edgeLabel;html=1;align=center;verticalAlign=middle;resizable=0;points=[];" vertex="1" connectable="0" parent="FNkPyqkchI54DgubYqVO-28">
          <mxGeometry x="0.2506" y="-2" relative="1" as="geometry">
            <mxPoint x="-6" y="1" as="offset" />
          </mxGeometry>
        </mxCell>
        <mxCell id="FNkPyqkchI54DgubYqVO-39" style="edgeStyle=orthogonalEdgeStyle;rounded=0;orthogonalLoop=1;jettySize=auto;html=1;entryX=0.5;entryY=0;entryDx=0;entryDy=0;" edge="1" parent="WIyWlLk6GJQsqaUBKTNV-1" source="FNkPyqkchI54DgubYqVO-25" target="FNkPyqkchI54DgubYqVO-30">
          <mxGeometry relative="1" as="geometry" />
        </mxCell>
        <mxCell id="FNkPyqkchI54DgubYqVO-57" value="Нет" style="edgeLabel;html=1;align=center;verticalAlign=middle;resizable=0;points=[];" vertex="1" connectable="0" parent="FNkPyqkchI54DgubYqVO-39">
          <mxGeometry x="-0.775" y="1" relative="1" as="geometry">
            <mxPoint y="-9" as="offset" />
          </mxGeometry>
        </mxCell>
        <mxCell id="FNkPyqkchI54DgubYqVO-25" value="&lt;font style=&quot;font-size: 11px;&quot;&gt;0х41&amp;lt;=прописная буква&amp;lt;0=0х5&lt;font style=&quot;font-size: 11px;&quot;&gt;&lt;span style=&quot;line-height: 107%; font-family: Calibri, &amp;quot;sans-serif&amp;quot;; color: rgb(17, 17, 17);&quot; lang=&quot;EN-US&quot;&gt;A&lt;/span&gt;&lt;span style=&quot;line-height: 107%; font-family: Calibri, &amp;quot;sans-serif&amp;quot;; color: rgb(17, 17, 17);&quot;&gt; или 0х61&amp;lt;=прописная буква&amp;lt;=0х7&lt;/span&gt;&lt;span style=&quot;line-height: 107%; font-family: Calibri, &amp;quot;sans-serif&amp;quot;; color: rgb(17, 17, 17);&quot; lang=&quot;EN-US&quot;&gt;A ?&lt;/span&gt;&lt;/font&gt;&lt;/font&gt;" style="rhombus;whiteSpace=wrap;html=1;" vertex="1" parent="WIyWlLk6GJQsqaUBKTNV-1">
          <mxGeometry x="320" y="160" width="216" height="120" as="geometry" />
        </mxCell>
        <mxCell id="FNkPyqkchI54DgubYqVO-37" style="edgeStyle=orthogonalEdgeStyle;rounded=0;orthogonalLoop=1;jettySize=auto;html=1;entryX=0.5;entryY=0;entryDx=0;entryDy=0;" edge="1" parent="WIyWlLk6GJQsqaUBKTNV-1" source="FNkPyqkchI54DgubYqVO-29" target="FNkPyqkchI54DgubYqVO-32">
          <mxGeometry relative="1" as="geometry" />
        </mxCell>
        <mxCell id="FNkPyqkchI54DgubYqVO-29" value="Ввод строчная функция" style="shape=parallelogram;perimeter=parallelogramPerimeter;whiteSpace=wrap;html=1;fixedSize=1;" vertex="1" parent="WIyWlLk6GJQsqaUBKTNV-1">
          <mxGeometry x="363" y="305" width="130" height="40" as="geometry" />
        </mxCell>
        <mxCell id="FNkPyqkchI54DgubYqVO-41" value="" style="edgeStyle=orthogonalEdgeStyle;rounded=0;orthogonalLoop=1;jettySize=auto;html=1;" edge="1" parent="WIyWlLk6GJQsqaUBKTNV-1" source="FNkPyqkchI54DgubYqVO-30" target="FNkPyqkchI54DgubYqVO-40">
          <mxGeometry relative="1" as="geometry" />
        </mxCell>
        <mxCell id="FNkPyqkchI54DgubYqVO-30" value="Вывод &quot;Вы ввели не букву латинского алфавита&quot;" style="shape=parallelogram;perimeter=parallelogramPerimeter;whiteSpace=wrap;html=1;fixedSize=1;" vertex="1" parent="WIyWlLk6GJQsqaUBKTNV-1">
          <mxGeometry x="543" y="295" width="170" height="60" as="geometry" />
        </mxCell>
        <mxCell id="FNkPyqkchI54DgubYqVO-53" value="" style="edgeStyle=orthogonalEdgeStyle;rounded=0;orthogonalLoop=1;jettySize=auto;html=1;" edge="1" parent="WIyWlLk6GJQsqaUBKTNV-1" source="FNkPyqkchI54DgubYqVO-32" target="FNkPyqkchI54DgubYqVO-52">
          <mxGeometry relative="1" as="geometry" />
        </mxCell>
        <mxCell id="FNkPyqkchI54DgubYqVO-60" value="Да" style="edgeLabel;html=1;align=center;verticalAlign=middle;resizable=0;points=[];" vertex="1" connectable="0" parent="FNkPyqkchI54DgubYqVO-53">
          <mxGeometry x="-0.8242" y="-4" relative="1" as="geometry">
            <mxPoint x="-4" y="1" as="offset" />
          </mxGeometry>
        </mxCell>
        <mxCell id="FNkPyqkchI54DgubYqVO-32" value="&lt;font style=&quot;font-size: 11px;&quot;&gt;0х41&amp;lt;=прописная буква&amp;lt;0=0х5&lt;font style=&quot;font-size: 11px;&quot;&gt;&lt;span style=&quot;line-height: 107%; font-family: Calibri, &amp;quot;sans-serif&amp;quot;; color: rgb(17, 17, 17);&quot; lang=&quot;EN-US&quot;&gt;A&lt;/span&gt;&lt;span style=&quot;line-height: 107%; font-family: Calibri, &amp;quot;sans-serif&amp;quot;; color: rgb(17, 17, 17);&quot;&gt; или 0х61&amp;lt;=прописная буква&amp;lt;=0х7&lt;/span&gt;&lt;span style=&quot;line-height: 107%; font-family: Calibri, &amp;quot;sans-serif&amp;quot;; color: rgb(17, 17, 17);&quot; lang=&quot;EN-US&quot;&gt;A ?&lt;/span&gt;&lt;/font&gt;&lt;/font&gt;" style="rhombus;whiteSpace=wrap;html=1;" vertex="1" parent="WIyWlLk6GJQsqaUBKTNV-1">
          <mxGeometry x="320" y="375" width="216" height="120" as="geometry" />
        </mxCell>
        <mxCell id="FNkPyqkchI54DgubYqVO-33" value="1" style="ellipse;whiteSpace=wrap;html=1;" vertex="1" parent="WIyWlLk6GJQsqaUBKTNV-1">
          <mxGeometry x="250" y="245" width="50" height="50" as="geometry" />
        </mxCell>
        <mxCell id="FNkPyqkchI54DgubYqVO-36" style="edgeStyle=orthogonalEdgeStyle;rounded=0;orthogonalLoop=1;jettySize=auto;html=1;entryX=0.5;entryY=0;entryDx=0;entryDy=0;" edge="1" parent="WIyWlLk6GJQsqaUBKTNV-1" target="FNkPyqkchI54DgubYqVO-23">
          <mxGeometry relative="1" as="geometry">
            <mxPoint x="428" y="65" as="sourcePoint" />
          </mxGeometry>
        </mxCell>
        <mxCell id="FNkPyqkchI54DgubYqVO-35" value="1" style="ellipse;whiteSpace=wrap;html=1;aspect=fixed;" vertex="1" parent="WIyWlLk6GJQsqaUBKTNV-1">
          <mxGeometry x="403" y="20" width="50" height="50" as="geometry" />
        </mxCell>
        <mxCell id="FNkPyqkchI54DgubYqVO-38" style="edgeStyle=orthogonalEdgeStyle;rounded=0;orthogonalLoop=1;jettySize=auto;html=1;entryX=0.412;entryY=1.041;entryDx=0;entryDy=0;entryPerimeter=0;" edge="1" parent="WIyWlLk6GJQsqaUBKTNV-1" source="FNkPyqkchI54DgubYqVO-32" target="FNkPyqkchI54DgubYqVO-30">
          <mxGeometry relative="1" as="geometry" />
        </mxCell>
        <mxCell id="FNkPyqkchI54DgubYqVO-58" value="Нет" style="edgeLabel;html=1;align=center;verticalAlign=middle;resizable=0;points=[];" vertex="1" connectable="0" parent="FNkPyqkchI54DgubYqVO-38">
          <mxGeometry x="-0.7803" y="-1" relative="1" as="geometry">
            <mxPoint x="-10" y="-16" as="offset" />
          </mxGeometry>
        </mxCell>
        <mxCell id="FNkPyqkchI54DgubYqVO-40" value="4" style="ellipse;whiteSpace=wrap;html=1;" vertex="1" parent="WIyWlLk6GJQsqaUBKTNV-1">
          <mxGeometry x="740" y="300" width="50" height="52.5" as="geometry" />
        </mxCell>
        <mxCell id="FNkPyqkchI54DgubYqVO-42" value="Конец" style="strokeWidth=2;html=1;shape=mxgraph.flowchart.terminator;whiteSpace=wrap;strokeColor=#000000;" vertex="1" parent="WIyWlLk6GJQsqaUBKTNV-1">
          <mxGeometry x="70" y="740" width="140" height="40" as="geometry" />
        </mxCell>
        <mxCell id="FNkPyqkchI54DgubYqVO-44" value="2" style="ellipse;whiteSpace=wrap;html=1;" vertex="1" parent="WIyWlLk6GJQsqaUBKTNV-1">
          <mxGeometry x="250" y="355" width="50" height="50" as="geometry" />
        </mxCell>
        <mxCell id="FNkPyqkchI54DgubYqVO-46" value="3" style="ellipse;whiteSpace=wrap;html=1;" vertex="1" parent="WIyWlLk6GJQsqaUBKTNV-1">
          <mxGeometry x="250" y="465" width="50" height="50" as="geometry" />
        </mxCell>
        <mxCell id="FNkPyqkchI54DgubYqVO-51" style="edgeStyle=orthogonalEdgeStyle;rounded=0;orthogonalLoop=1;jettySize=auto;html=1;" edge="1" parent="WIyWlLk6GJQsqaUBKTNV-1" source="FNkPyqkchI54DgubYqVO-50">
          <mxGeometry relative="1" as="geometry">
            <mxPoint x="140" y="730" as="targetPoint" />
            <Array as="points">
              <mxPoint x="295" y="695" />
              <mxPoint x="295" y="730" />
            </Array>
          </mxGeometry>
        </mxCell>
        <mxCell id="FNkPyqkchI54DgubYqVO-50" value="4" style="ellipse;whiteSpace=wrap;html=1;aspect=fixed;" vertex="1" parent="WIyWlLk6GJQsqaUBKTNV-1">
          <mxGeometry x="270" y="660" width="50" height="50" as="geometry" />
        </mxCell>
        <mxCell id="FNkPyqkchI54DgubYqVO-55" style="edgeStyle=orthogonalEdgeStyle;rounded=0;orthogonalLoop=1;jettySize=auto;html=1;entryX=0.5;entryY=0;entryDx=0;entryDy=0;" edge="1" parent="WIyWlLk6GJQsqaUBKTNV-1" source="FNkPyqkchI54DgubYqVO-52" target="FNkPyqkchI54DgubYqVO-54">
          <mxGeometry relative="1" as="geometry" />
        </mxCell>
        <mxCell id="FNkPyqkchI54DgubYqVO-52" value="разница=строчная буква-прописная буква" style="whiteSpace=wrap;html=1;" vertex="1" parent="WIyWlLk6GJQsqaUBKTNV-1">
          <mxGeometry x="353" y="525" width="150" height="45" as="geometry" />
        </mxCell>
        <mxCell id="FNkPyqkchI54DgubYqVO-56" style="edgeStyle=orthogonalEdgeStyle;rounded=0;orthogonalLoop=1;jettySize=auto;html=1;entryX=0.5;entryY=1;entryDx=0;entryDy=0;" edge="1" parent="WIyWlLk6GJQsqaUBKTNV-1" source="FNkPyqkchI54DgubYqVO-54" target="FNkPyqkchI54DgubYqVO-40">
          <mxGeometry relative="1" as="geometry" />
        </mxCell>
        <mxCell id="FNkPyqkchI54DgubYqVO-54" value="Вывод разница" style="shape=parallelogram;perimeter=parallelogramPerimeter;whiteSpace=wrap;html=1;fixedSize=1;" vertex="1" parent="WIyWlLk6GJQsqaUBKTNV-1">
          <mxGeometry x="368" y="595" width="120" height="40" as="geometry" />
        </mxCell>
        <mxCell id="FNkPyqkchI54DgubYqVO-65" style="edgeStyle=orthogonalEdgeStyle;rounded=0;orthogonalLoop=1;jettySize=auto;html=1;entryX=0.5;entryY=0;entryDx=0;entryDy=0;entryPerimeter=0;" edge="1" parent="WIyWlLk6GJQsqaUBKTNV-1" source="FNkPyqkchI54DgubYqVO-15" target="FNkPyqkchI54DgubYqVO-42">
          <mxGeometry relative="1" as="geometry" />
        </mxCell>
        <mxCell id="FNkPyqkchI54DgubYqVO-67" value="" style="edgeStyle=orthogonalEdgeStyle;rounded=0;orthogonalLoop=1;jettySize=auto;html=1;" edge="1" parent="WIyWlLk6GJQsqaUBKTNV-1" source="FNkPyqkchI54DgubYqVO-68" target="FNkPyqkchI54DgubYqVO-73">
          <mxGeometry relative="1" as="geometry" />
        </mxCell>
        <mxCell id="FNkPyqkchI54DgubYqVO-68" value="Ввод прописная буква" style="shape=parallelogram;perimeter=parallelogramPerimeter;whiteSpace=wrap;html=1;fixedSize=1;" vertex="1" parent="WIyWlLk6GJQsqaUBKTNV-1">
          <mxGeometry x="498" y="738" width="120" height="40" as="geometry" />
        </mxCell>
        <mxCell id="FNkPyqkchI54DgubYqVO-69" value="" style="edgeStyle=orthogonalEdgeStyle;rounded=0;orthogonalLoop=1;jettySize=auto;html=1;entryX=0.5;entryY=0;entryDx=0;entryDy=0;" edge="1" parent="WIyWlLk6GJQsqaUBKTNV-1" source="FNkPyqkchI54DgubYqVO-73" target="FNkPyqkchI54DgubYqVO-75">
          <mxGeometry relative="1" as="geometry">
            <mxPoint x="639" y="1068" as="targetPoint" />
          </mxGeometry>
        </mxCell>
        <mxCell id="FNkPyqkchI54DgubYqVO-70" value="Да" style="edgeLabel;html=1;align=center;verticalAlign=middle;resizable=0;points=[];" vertex="1" connectable="0" parent="FNkPyqkchI54DgubYqVO-69">
          <mxGeometry x="0.2506" y="-2" relative="1" as="geometry">
            <mxPoint x="-6" y="1" as="offset" />
          </mxGeometry>
        </mxCell>
        <mxCell id="FNkPyqkchI54DgubYqVO-71" style="edgeStyle=orthogonalEdgeStyle;rounded=0;orthogonalLoop=1;jettySize=auto;html=1;entryX=0.5;entryY=0;entryDx=0;entryDy=0;" edge="1" parent="WIyWlLk6GJQsqaUBKTNV-1" source="FNkPyqkchI54DgubYqVO-73" target="FNkPyqkchI54DgubYqVO-77">
          <mxGeometry relative="1" as="geometry">
            <mxPoint x="778" y="863" as="targetPoint" />
            <Array as="points">
              <mxPoint x="715" y="838" />
            </Array>
          </mxGeometry>
        </mxCell>
        <mxCell id="FNkPyqkchI54DgubYqVO-72" value="Нет" style="edgeLabel;html=1;align=center;verticalAlign=middle;resizable=0;points=[];" vertex="1" connectable="0" parent="FNkPyqkchI54DgubYqVO-71">
          <mxGeometry x="-0.775" y="1" relative="1" as="geometry">
            <mxPoint y="-9" as="offset" />
          </mxGeometry>
        </mxCell>
        <mxCell id="FNkPyqkchI54DgubYqVO-73" value="&lt;font style=&quot;font-size: 12px;&quot;&gt;0х&lt;span style=&quot;line-height: 107%; font-family: Calibri, &amp;quot;sans-serif&amp;quot;; color: rgb(17, 17, 17);&quot; lang=&quot;EN-US&quot;&gt;C&lt;/span&gt;&lt;span style=&quot;line-height: 107%; font-family: Calibri, &amp;quot;sans-serif&amp;quot;; color: rgb(17, 17, 17);&quot;&gt;0&amp;lt;=прописная буква&amp;lt;0=0х&lt;/span&gt;&lt;span style=&quot;line-height: 107%; font-family: Calibri, &amp;quot;sans-serif&amp;quot;; color: rgb(17, 17, 17);&quot; lang=&quot;EN-US&quot;&gt;FF&lt;/span&gt;&lt;/font&gt;" style="rhombus;whiteSpace=wrap;html=1;" vertex="1" parent="WIyWlLk6GJQsqaUBKTNV-1">
          <mxGeometry x="453" y="803" width="206" height="70" as="geometry" />
        </mxCell>
        <mxCell id="FNkPyqkchI54DgubYqVO-74" style="edgeStyle=orthogonalEdgeStyle;rounded=0;orthogonalLoop=1;jettySize=auto;html=1;entryX=0.5;entryY=0;entryDx=0;entryDy=0;" edge="1" parent="WIyWlLk6GJQsqaUBKTNV-1" source="FNkPyqkchI54DgubYqVO-75" target="FNkPyqkchI54DgubYqVO-80">
          <mxGeometry relative="1" as="geometry" />
        </mxCell>
        <mxCell id="FNkPyqkchI54DgubYqVO-75" value="Ввод строчная функция" style="shape=parallelogram;perimeter=parallelogramPerimeter;whiteSpace=wrap;html=1;fixedSize=1;" vertex="1" parent="WIyWlLk6GJQsqaUBKTNV-1">
          <mxGeometry x="491" y="903" width="130" height="40" as="geometry" />
        </mxCell>
        <mxCell id="FNkPyqkchI54DgubYqVO-76" value="" style="edgeStyle=orthogonalEdgeStyle;rounded=0;orthogonalLoop=1;jettySize=auto;html=1;" edge="1" parent="WIyWlLk6GJQsqaUBKTNV-1" source="FNkPyqkchI54DgubYqVO-77" target="FNkPyqkchI54DgubYqVO-85">
          <mxGeometry relative="1" as="geometry" />
        </mxCell>
        <mxCell id="FNkPyqkchI54DgubYqVO-77" value="Вывод &quot;Вы ввели не букву русского алфавита&quot;" style="shape=parallelogram;perimeter=parallelogramPerimeter;whiteSpace=wrap;html=1;fixedSize=1;" vertex="1" parent="WIyWlLk6GJQsqaUBKTNV-1">
          <mxGeometry x="621" y="896.75" width="187" height="60" as="geometry" />
        </mxCell>
        <mxCell id="FNkPyqkchI54DgubYqVO-78" value="" style="edgeStyle=orthogonalEdgeStyle;rounded=0;orthogonalLoop=1;jettySize=auto;html=1;" edge="1" parent="WIyWlLk6GJQsqaUBKTNV-1" source="FNkPyqkchI54DgubYqVO-80" target="FNkPyqkchI54DgubYqVO-87">
          <mxGeometry relative="1" as="geometry" />
        </mxCell>
        <mxCell id="FNkPyqkchI54DgubYqVO-79" value="Да" style="edgeLabel;html=1;align=center;verticalAlign=middle;resizable=0;points=[];" vertex="1" connectable="0" parent="FNkPyqkchI54DgubYqVO-78">
          <mxGeometry x="-0.8242" y="-4" relative="1" as="geometry">
            <mxPoint x="-4" y="1" as="offset" />
          </mxGeometry>
        </mxCell>
        <mxCell id="FNkPyqkchI54DgubYqVO-80" value="&lt;font style=&quot;font-size: 12px;&quot;&gt;0х&lt;span style=&quot;line-height: 107%;&quot; lang=&quot;EN-US&quot;&gt;C&lt;/span&gt;&lt;span style=&quot;line-height: 107%; font-family: Calibri, &amp;quot;sans-serif&amp;quot;; color: rgb(17, 17, 17);&quot;&gt;0&amp;lt;=строчная буква&amp;lt;0=0х&lt;/span&gt;&lt;span style=&quot;line-height: 107%; font-family: Calibri, &amp;quot;sans-serif&amp;quot;; color: rgb(17, 17, 17);&quot; lang=&quot;EN-US&quot;&gt;FF&lt;/span&gt;&lt;/font&gt;" style="rhombus;whiteSpace=wrap;html=1;" vertex="1" parent="WIyWlLk6GJQsqaUBKTNV-1">
          <mxGeometry x="453" y="973" width="206" height="70" as="geometry" />
        </mxCell>
        <mxCell id="FNkPyqkchI54DgubYqVO-81" style="edgeStyle=orthogonalEdgeStyle;rounded=0;orthogonalLoop=1;jettySize=auto;html=1;entryX=0.5;entryY=0;entryDx=0;entryDy=0;" edge="1" parent="WIyWlLk6GJQsqaUBKTNV-1" target="FNkPyqkchI54DgubYqVO-68">
          <mxGeometry relative="1" as="geometry">
            <mxPoint x="556" y="708" as="sourcePoint" />
          </mxGeometry>
        </mxCell>
        <mxCell id="FNkPyqkchI54DgubYqVO-82" value="2" style="ellipse;whiteSpace=wrap;html=1;aspect=fixed;" vertex="1" parent="WIyWlLk6GJQsqaUBKTNV-1">
          <mxGeometry x="531" y="663" width="50" height="50" as="geometry" />
        </mxCell>
        <mxCell id="FNkPyqkchI54DgubYqVO-83" style="edgeStyle=orthogonalEdgeStyle;rounded=0;orthogonalLoop=1;jettySize=auto;html=1;entryX=0.5;entryY=1;entryDx=0;entryDy=0;" edge="1" parent="WIyWlLk6GJQsqaUBKTNV-1" source="FNkPyqkchI54DgubYqVO-80" target="FNkPyqkchI54DgubYqVO-77">
          <mxGeometry relative="1" as="geometry">
            <mxPoint x="738" y="1023" as="targetPoint" />
            <Array as="points">
              <mxPoint x="715" y="1008" />
            </Array>
          </mxGeometry>
        </mxCell>
        <mxCell id="FNkPyqkchI54DgubYqVO-84" value="Нет" style="edgeLabel;html=1;align=center;verticalAlign=middle;resizable=0;points=[];" vertex="1" connectable="0" parent="FNkPyqkchI54DgubYqVO-83">
          <mxGeometry x="-0.7803" y="-1" relative="1" as="geometry">
            <mxPoint x="-10" y="-16" as="offset" />
          </mxGeometry>
        </mxCell>
        <mxCell id="FNkPyqkchI54DgubYqVO-85" value="4" style="ellipse;whiteSpace=wrap;html=1;" vertex="1" parent="WIyWlLk6GJQsqaUBKTNV-1">
          <mxGeometry x="838" y="900.5" width="50" height="52.5" as="geometry" />
        </mxCell>
        <mxCell id="FNkPyqkchI54DgubYqVO-86" style="edgeStyle=orthogonalEdgeStyle;rounded=0;orthogonalLoop=1;jettySize=auto;html=1;entryX=0.5;entryY=0;entryDx=0;entryDy=0;" edge="1" parent="WIyWlLk6GJQsqaUBKTNV-1" source="FNkPyqkchI54DgubYqVO-87" target="FNkPyqkchI54DgubYqVO-89">
          <mxGeometry relative="1" as="geometry" />
        </mxCell>
        <mxCell id="FNkPyqkchI54DgubYqVO-87" value="разница=строчная буква-прописная буква" style="whiteSpace=wrap;html=1;" vertex="1" parent="WIyWlLk6GJQsqaUBKTNV-1">
          <mxGeometry x="481" y="1083" width="150" height="45" as="geometry" />
        </mxCell>
        <mxCell id="FNkPyqkchI54DgubYqVO-88" style="edgeStyle=orthogonalEdgeStyle;rounded=0;orthogonalLoop=1;jettySize=auto;html=1;entryX=0.5;entryY=1;entryDx=0;entryDy=0;" edge="1" parent="WIyWlLk6GJQsqaUBKTNV-1" source="FNkPyqkchI54DgubYqVO-89" target="FNkPyqkchI54DgubYqVO-85">
          <mxGeometry relative="1" as="geometry" />
        </mxCell>
        <mxCell id="FNkPyqkchI54DgubYqVO-89" value="Вывод разница" style="shape=parallelogram;perimeter=parallelogramPerimeter;whiteSpace=wrap;html=1;fixedSize=1;" vertex="1" parent="WIyWlLk6GJQsqaUBKTNV-1">
          <mxGeometry x="496" y="1158" width="120" height="40" as="geometry" />
        </mxCell>
        <mxCell id="FNkPyqkchI54DgubYqVO-92" value="" style="edgeStyle=orthogonalEdgeStyle;rounded=0;orthogonalLoop=1;jettySize=auto;html=1;" edge="1" parent="WIyWlLk6GJQsqaUBKTNV-1" source="FNkPyqkchI54DgubYqVO-90" target="FNkPyqkchI54DgubYqVO-91">
          <mxGeometry relative="1" as="geometry" />
        </mxCell>
        <mxCell id="FNkPyqkchI54DgubYqVO-90" value="3" style="ellipse;whiteSpace=wrap;html=1;aspect=fixed;" vertex="1" parent="WIyWlLk6GJQsqaUBKTNV-1">
          <mxGeometry x="113.75" y="804" width="56.5" height="56.5" as="geometry" />
        </mxCell>
        <mxCell id="FNkPyqkchI54DgubYqVO-94" value="" style="edgeStyle=orthogonalEdgeStyle;rounded=0;orthogonalLoop=1;jettySize=auto;html=1;" edge="1" parent="WIyWlLk6GJQsqaUBKTNV-1" source="FNkPyqkchI54DgubYqVO-91" target="FNkPyqkchI54DgubYqVO-93">
          <mxGeometry relative="1" as="geometry" />
        </mxCell>
        <mxCell id="FNkPyqkchI54DgubYqVO-91" value="Ввод цифра" style="shape=parallelogram;perimeter=parallelogramPerimeter;whiteSpace=wrap;html=1;fixedSize=1;" vertex="1" parent="WIyWlLk6GJQsqaUBKTNV-1">
          <mxGeometry x="82" y="884" width="120" height="50" as="geometry" />
        </mxCell>
        <mxCell id="FNkPyqkchI54DgubYqVO-96" value="" style="edgeStyle=orthogonalEdgeStyle;rounded=0;orthogonalLoop=1;jettySize=auto;html=1;" edge="1" parent="WIyWlLk6GJQsqaUBKTNV-1" source="FNkPyqkchI54DgubYqVO-93" target="FNkPyqkchI54DgubYqVO-95">
          <mxGeometry relative="1" as="geometry" />
        </mxCell>
        <mxCell id="FNkPyqkchI54DgubYqVO-100" style="edgeStyle=orthogonalEdgeStyle;rounded=0;orthogonalLoop=1;jettySize=auto;html=1;exitX=1;exitY=0.5;exitDx=0;exitDy=0;entryX=0;entryY=0.5;entryDx=0;entryDy=0;" edge="1" parent="WIyWlLk6GJQsqaUBKTNV-1" source="FNkPyqkchI54DgubYqVO-93" target="FNkPyqkchI54DgubYqVO-99">
          <mxGeometry relative="1" as="geometry" />
        </mxCell>
        <mxCell id="FNkPyqkchI54DgubYqVO-93" value="цифра&amp;lt;10?" style="rhombus;whiteSpace=wrap;html=1;" vertex="1" parent="WIyWlLk6GJQsqaUBKTNV-1">
          <mxGeometry x="83.75" y="964" width="120" height="80" as="geometry" />
        </mxCell>
        <mxCell id="FNkPyqkchI54DgubYqVO-98" style="edgeStyle=orthogonalEdgeStyle;rounded=0;orthogonalLoop=1;jettySize=auto;html=1;entryX=0.5;entryY=0;entryDx=0;entryDy=0;" edge="1" parent="WIyWlLk6GJQsqaUBKTNV-1" source="FNkPyqkchI54DgubYqVO-95" target="FNkPyqkchI54DgubYqVO-97">
          <mxGeometry relative="1" as="geometry" />
        </mxCell>
        <mxCell id="FNkPyqkchI54DgubYqVO-95" value="символ = цифра" style="whiteSpace=wrap;html=1;" vertex="1" parent="WIyWlLk6GJQsqaUBKTNV-1">
          <mxGeometry x="83.75" y="1074" width="120" height="50" as="geometry" />
        </mxCell>
        <mxCell id="FNkPyqkchI54DgubYqVO-104" style="edgeStyle=orthogonalEdgeStyle;rounded=0;orthogonalLoop=1;jettySize=auto;html=1;entryX=0.5;entryY=1;entryDx=0;entryDy=0;" edge="1" parent="WIyWlLk6GJQsqaUBKTNV-1" source="FNkPyqkchI54DgubYqVO-97" target="FNkPyqkchI54DgubYqVO-101">
          <mxGeometry relative="1" as="geometry" />
        </mxCell>
        <mxCell id="FNkPyqkchI54DgubYqVO-97" value="Вывод символ" style="shape=parallelogram;perimeter=parallelogramPerimeter;whiteSpace=wrap;html=1;fixedSize=1;" vertex="1" parent="WIyWlLk6GJQsqaUBKTNV-1">
          <mxGeometry x="83.75" y="1154" width="120" height="50" as="geometry" />
        </mxCell>
        <mxCell id="FNkPyqkchI54DgubYqVO-102" value="" style="edgeStyle=orthogonalEdgeStyle;rounded=0;orthogonalLoop=1;jettySize=auto;html=1;" edge="1" parent="WIyWlLk6GJQsqaUBKTNV-1" source="FNkPyqkchI54DgubYqVO-99" target="FNkPyqkchI54DgubYqVO-101">
          <mxGeometry relative="1" as="geometry" />
        </mxCell>
        <mxCell id="FNkPyqkchI54DgubYqVO-99" value="Вывод &quot;Это не цифра&quot;" style="shape=parallelogram;perimeter=parallelogramPerimeter;whiteSpace=wrap;html=1;fixedSize=1;" vertex="1" parent="WIyWlLk6GJQsqaUBKTNV-1">
          <mxGeometry x="213.75" y="974" width="120" height="60" as="geometry" />
        </mxCell>
        <mxCell id="FNkPyqkchI54DgubYqVO-101" value="4" style="ellipse;whiteSpace=wrap;html=1;" vertex="1" parent="WIyWlLk6GJQsqaUBKTNV-1">
          <mxGeometry x="363.75" y="975.75" width="60" height="56.5" as="geometry" />
        </mxCell>
      </root>
    </mxGraphModel>
  </diagram>
</mxfile>
